<?xml version="1.0" encoding="UTF-8" standalone="no"?>
<svg
   xmlns:dc="http://purl.org/dc/elements/1.1/"
   xmlns:cc="http://creativecommons.org/ns#"
   xmlns:rdf="http://www.w3.org/1999/02/22-rdf-syntax-ns#"
   xmlns:svg="http://www.w3.org/2000/svg"
   xmlns="http://www.w3.org/2000/svg"
   xmlns:sodipodi="http://sodipodi.sourceforge.net/DTD/sodipodi-0.dtd"
   xmlns:inkscape="http://www.inkscape.org/namespaces/inkscape"
   viewBox="0 0 100 100"
   x="0px"
   y="0px"
   version="1.1"
   id="svg84"
   sodipodi:docname="noun_drawing_2123401.svg"
   width="100"
   height="100"
   inkscape:version="0.92.2 5c3e80d, 2017-08-06">
  <metadata
     id="metadata90">
    <rdf:RDF>
      <cc:Work
         rdf:about="">
        <dc:format>image/svg+xml</dc:format>
        <dc:type
           rdf:resource="http://purl.org/dc/dcmitype/StillImage" />
        <dc:title></dc:title>
      </cc:Work>
    </rdf:RDF>
  </metadata>
  <defs
     id="defs88" />
  <sodipodi:namedview
     pagecolor="#ffffff"
     bordercolor="#666666"
     borderopacity="1"
     objecttolerance="10"
     gridtolerance="10"
     guidetolerance="10"
     inkscape:pageopacity="0"
     inkscape:pageshadow="2"
     inkscape:window-width="2562"
     inkscape:window-height="1400"
     id="namedview86"
     showgrid="false"
     inkscape:zoom="7.6125"
     inkscape:cx="50.379744"
     inkscape:cy="28.685276"
     inkscape:window-x="0"
     inkscape:window-y="0"
     inkscape:window-maximized="0"
     inkscape:current-layer="svg84" />
  <g
     id="g97"
     transform="matrix(1.6130268,0,0,1.6130268,-1.6201423,-33.847838)">
    <path
       inkscape:connector-curvature="0"
       id="path70"
       d="m 61,34 h -3 v 2 h 2 V 65.057 L 55.581,61.9 54.419,63.528 60,67.515 V 70 h -9 a 1,1 0 0 0 -1,1 v 9 H 7 a 3,3 0 0 1 0,-6 h 2 a 1,1 0 0 0 1,-1 V 66.457 L 24,54.32 37.35,65.759 a 1,1 0 0 0 1.314,-0.011 l 6.75,-6 -1.328,-1.5 -6.1,5.421 L 24.65,52.241 a 1,1 0 0 0 -1.3,0 L 10,63.81 V 36 H 44 V 34 H 10 V 29 A 1,1 0 0 0 9,28 H 7 a 5.006,5.006 0 0 0 -5,5 v 44 a 5.006,5.006 0 0 0 5,5 h 44 a 1.005,1.005 0 0 0 0.707,-0.293 l 10,-10 a 1,1 0 0 0 0.2,-0.293 c 0.014,-0.031 0.022,-0.061 0.033,-0.093 a 1,1 0 0 0 0.052,-0.26 c 0,-0.021 0.012,-0.04 0.012,-0.061 V 35 A 1,1 0 0 0 61,34 Z M 4,35 V 33 A 3,3 0 0 1 7,30 H 8 V 72 H 7 A 4.98,4.98 0 0 0 4,73 Z M 52,78.586 V 72 h 6.586 z" />
    <path
       inkscape:connector-curvature="0"
       id="path72"
       d="m 30,47 a 6,6 0 1 0 6,-6 6.006,6.006 0 0 0 -6,6 z m 10,0 a 4,4 0 1 1 -4,-4 4,4 0 0 1 4,4 z" />
    <rect
       id="rect74"
       transform="rotate(-39.806)"
       height="2"
       width="7.8099999"
       y="59.817135"
       x="-28.551853" />
    <rect
       id="rect76"
       transform="rotate(-45)"
       height="2"
       width="4.243"
       y="76.781548"
       x="-16.970592" />
    <path
       inkscape:connector-curvature="0"
       id="path78"
       d="m 52,66 v -2.7 l 3.832,-5.748 A 1.006,1.006 0 0 0 56,57 V 27 a 5,5 0 0 0 -10,0 v 30 a 1.006,1.006 0 0 0 0.168,0.555 L 50,63.3 V 66 Z M 54,56 H 52 V 34 h 2 z M 48,27 a 3,3 0 0 1 6,0 v 1 h -6 z m 0,3 h 6 v 2 h -6 z m 0,4 h 2 v 22 h -2 z m 0.868,24 h 4.264 L 51,61.2 Z" />
  </g>
</svg>
